<?xml version="1.0" encoding="UTF-8"?>
<svg xmlns="http://www.w3.org/2000/svg" xmlns:xlink="http://www.w3.org/1999/xlink" width="30px" height="30px" viewBox="0 0 30 30" version="1.1">
<g id="surface1">
<path style=" stroke:none;fill-rule:nonzero;fill:rgb(92.941177%,81.960785%,73.333335%);fill-opacity:1;" d="M 0 0 C 9.898438 0 19.800781 0 30 0 C 30 9.898438 30 19.800781 30 30 C 20.101562 30 10.199219 30 0 30 C 0 20.101562 0 10.199219 0 0 Z M 0 0 "/>
<path style=" stroke:none;fill-rule:nonzero;fill:rgb(67.843139%,57.647061%,48.627451%);fill-opacity:1;" d="M 0 0 C 9.898438 0 19.800781 0 30 0 C 30 9.898438 30 19.800781 30 30 C 20.101562 30 10.199219 30 0 30 C 0 20.101562 0 10.199219 0 0 Z M 12.359375 3 C 12.417969 3.058594 12.417969 3.058594 12.480469 3.121094 C 12.621094 3.113281 12.621094 3.113281 12.789062 3.074219 C 14.0625 2.859375 15.332031 2.867188 16.621094 2.878906 C 15.886719 2.898438 15.15625 2.917969 14.398438 2.941406 C 14.398438 2.980469 14.398438 3.019531 14.398438 3.058594 C 14.339844 3.0625 14.339844 3.0625 14.277344 3.066406 C 14.09375 3.070312 13.90625 3.078125 13.722656 3.085938 C 13.65625 3.089844 13.59375 3.089844 13.53125 3.09375 C 12.6875 3.121094 12.6875 3.121094 11.867188 3.304688 C 11.769531 3.335938 11.769531 3.335938 11.667969 3.371094 C 11.617188 3.386719 11.570312 3.402344 11.519531 3.421875 C 11.519531 3.378906 11.519531 3.339844 11.519531 3.300781 C 11.109375 3.332031 10.761719 3.449219 10.378906 3.601562 C 10.324219 3.621094 10.265625 3.644531 10.207031 3.664062 C 9.914062 3.753906 9.914062 3.753906 9.71875 3.960938 C 9.78125 3.960938 9.839844 3.960938 9.898438 3.960938 C 9.898438 4 9.898438 4.039062 9.898438 4.078125 C 9.859375 4.085938 9.816406 4.09375 9.777344 4.097656 C 9.449219 4.175781 9.164062 4.324219 8.878906 4.5 C 8.667969 4.625 8.472656 4.734375 8.246094 4.828125 C 8.03125 4.921875 7.867188 5.019531 7.679688 5.160156 C 7.679688 5.199219 7.679688 5.238281 7.679688 5.28125 C 7.632812 5.285156 7.632812 5.285156 7.582031 5.289062 C 7.375 5.363281 7.226562 5.503906 7.0625 5.648438 C 7.027344 5.675781 6.992188 5.707031 6.957031 5.738281 C 6.707031 5.953125 6.464844 6.175781 6.238281 6.421875 C 6.238281 6.460938 6.238281 6.5 6.238281 6.539062 C 6.195312 6.554688 6.152344 6.566406 6.109375 6.578125 C 5.902344 6.679688 5.769531 6.820312 5.621094 6.988281 C 5.59375 7.023438 5.5625 7.054688 5.535156 7.085938 C 5.035156 7.566406 5.035156 7.566406 4.800781 8.160156 C 4.761719 8.160156 4.722656 8.160156 4.679688 8.160156 C 4.582031 8.296875 4.492188 8.433594 4.402344 8.578125 C 4.375 8.617188 4.351562 8.660156 4.324219 8.707031 C 4.132812 9.019531 3.960938 9.34375 3.800781 9.675781 C 3.78125 9.71875 3.761719 9.761719 3.742188 9.804688 C 3.644531 10.015625 3.601562 10.144531 3.601562 10.378906 C 3.558594 10.378906 3.519531 10.378906 3.480469 10.378906 C 3.480469 10.5 3.480469 10.617188 3.480469 10.738281 C 3.519531 10.738281 3.558594 10.738281 3.601562 10.738281 C 3.613281 10.710938 3.625 10.679688 3.640625 10.648438 C 3.785156 10.316406 3.941406 9.988281 4.105469 9.667969 C 4.167969 9.542969 4.230469 9.417969 4.289062 9.296875 C 4.625 8.597656 5.0625 7.902344 5.699219 7.441406 C 5.675781 7.472656 5.648438 7.503906 5.621094 7.539062 C 5.585938 7.582031 5.554688 7.625 5.519531 7.667969 C 5.488281 7.710938 5.453125 7.753906 5.417969 7.796875 C 5.324219 7.921875 5.324219 7.921875 5.339844 8.101562 C 5.285156 8.121094 5.285156 8.121094 5.230469 8.144531 C 5.078125 8.230469 5.011719 8.3125 4.921875 8.460938 C 4.921875 8.519531 4.921875 8.578125 4.921875 8.640625 C 4.878906 8.640625 4.839844 8.640625 4.800781 8.640625 C 4.746094 8.734375 4.695312 8.832031 4.644531 8.929688 C 4.617188 8.980469 4.589844 9.035156 4.558594 9.089844 C 4.480469 9.242188 4.480469 9.242188 4.558594 9.421875 C 4.660156 9.320312 4.757812 9.222656 4.859375 9.121094 C 4.824219 9.1875 4.785156 9.25 4.746094 9.320312 C 4.695312 9.40625 4.648438 9.492188 4.597656 9.582031 C 4.574219 9.625 4.546875 9.667969 4.523438 9.710938 C 4.421875 9.890625 4.324219 10.066406 4.25 10.257812 C 4.199219 10.378906 4.199219 10.378906 4.078125 10.441406 C 4.078125 10.480469 4.078125 10.519531 4.078125 10.558594 C 4.023438 10.566406 4.023438 10.566406 3.96875 10.574219 C 3.832031 10.609375 3.832031 10.609375 3.773438 10.722656 C 3.753906 10.769531 3.738281 10.816406 3.71875 10.859375 C 3.699219 10.910156 3.679688 10.960938 3.660156 11.011719 C 3.640625 11.066406 3.621094 11.121094 3.601562 11.175781 C 3.570312 11.257812 3.570312 11.257812 3.535156 11.339844 C 3.476562 11.5 3.417969 11.660156 3.359375 11.820312 C 3.335938 11.890625 3.308594 11.960938 3.28125 12.03125 C 2.945312 13.03125 2.886719 14.117188 2.847656 15.160156 C 2.84375 15.226562 2.839844 15.292969 2.839844 15.359375 C 2.832031 15.519531 2.824219 15.679688 2.820312 15.839844 C 2.777344 15.644531 2.75 15.460938 2.742188 15.261719 C 2.738281 15.210938 2.734375 15.160156 2.734375 15.109375 C 2.730469 15.054688 2.730469 15.003906 2.726562 14.953125 C 2.722656 14.898438 2.722656 14.84375 2.71875 14.789062 C 2.710938 14.660156 2.707031 14.53125 2.699219 14.398438 C 2.660156 14.398438 2.621094 14.398438 2.578125 14.398438 C 2.558594 15.617188 2.597656 16.792969 2.761719 18 C 2.800781 18 2.839844 18 2.878906 18 C 2.882812 18.054688 2.882812 18.054688 2.890625 18.113281 C 2.894531 18.183594 2.894531 18.183594 2.902344 18.257812 C 2.90625 18.308594 2.910156 18.355469 2.914062 18.402344 C 2.933594 18.554688 2.933594 18.554688 3.058594 18.71875 C 3.039062 18.34375 3.019531 17.96875 3 17.578125 C 3.035156 17.753906 3.070312 17.929688 3.109375 18.113281 C 3.195312 18.519531 3.285156 18.925781 3.421875 19.320312 C 3.460938 19.320312 3.5 19.320312 3.539062 19.320312 C 3.558594 19.261719 3.578125 19.203125 3.601562 19.140625 C 3.71875 19.515625 3.835938 19.890625 3.960938 20.28125 C 4 20.28125 4.039062 20.28125 4.078125 20.28125 C 4.09375 20.355469 4.109375 20.429688 4.125 20.507812 C 4.183594 20.742188 4.246094 20.800781 4.441406 20.941406 C 4.628906 21.230469 4.722656 21.550781 4.816406 21.882812 C 4.871094 22.050781 4.929688 22.183594 5.039062 22.320312 C 5.097656 22.320312 5.160156 22.320312 5.21875 22.320312 C 5.28125 22.4375 5.28125 22.4375 5.339844 22.558594 C 5.378906 22.558594 5.417969 22.558594 5.460938 22.558594 C 5.472656 22.601562 5.484375 22.644531 5.5 22.683594 C 5.601562 22.910156 5.75 23.074219 5.914062 23.257812 C 6.230469 23.617188 6.230469 23.617188 6.300781 23.820312 C 6.339844 23.820312 6.378906 23.820312 6.421875 23.820312 C 6.421875 23.855469 6.425781 23.890625 6.425781 23.929688 C 6.46875 24.078125 6.46875 24.078125 6.640625 24.136719 C 6.871094 24.257812 7.03125 24.402344 7.214844 24.582031 C 7.78125 25.117188 8.371094 25.554688 9.039062 25.957031 C 9.140625 26.015625 9.238281 26.078125 9.332031 26.140625 C 9.488281 26.238281 9.488281 26.238281 9.71875 26.21875 C 9.71875 26.257812 9.71875 26.300781 9.71875 26.339844 C 10.035156 26.507812 10.347656 26.640625 10.6875 26.757812 C 10.820312 26.804688 10.957031 26.855469 11.089844 26.90625 C 11.171875 26.9375 11.257812 26.96875 11.339844 27 C 11.378906 27.015625 11.417969 27.027344 11.457031 27.042969 C 13.421875 27.761719 15.730469 27.820312 17.761719 27.359375 C 17.808594 27.351562 17.855469 27.339844 17.902344 27.328125 C 18.359375 27.226562 18.804688 27.101562 19.242188 26.933594 C 19.378906 26.878906 19.378906 26.878906 19.59375 26.824219 C 19.828125 26.75 20.027344 26.648438 20.242188 26.539062 C 20.398438 26.460938 20.554688 26.398438 20.714844 26.335938 C 20.953125 26.242188 21.148438 26.125 21.359375 25.980469 C 21.457031 25.9375 21.558594 25.894531 21.660156 25.859375 C 21.660156 25.820312 21.660156 25.78125 21.660156 25.738281 C 21.691406 25.726562 21.726562 25.710938 21.761719 25.695312 C 22.175781 25.472656 22.574219 25.160156 22.921875 24.839844 C 22.921875 24.800781 22.921875 24.761719 22.921875 24.71875 C 23 24.699219 23.078125 24.679688 23.160156 24.660156 C 23.160156 24.621094 23.160156 24.582031 23.160156 24.539062 C 23.203125 24.527344 23.246094 24.515625 23.292969 24.503906 C 23.472656 24.414062 23.5625 24.3125 23.683594 24.15625 C 23.796875 24.011719 23.929688 23.890625 24.058594 23.761719 C 24.109375 23.699219 24.160156 23.640625 24.210938 23.578125 C 24.359375 23.398438 24.359375 23.398438 24.511719 23.253906 C 24.824219 22.949219 24.824219 22.949219 24.960938 22.558594 C 25 22.558594 25.039062 22.558594 25.078125 22.558594 C 25.078125 22.519531 25.078125 22.480469 25.078125 22.441406 C 25.140625 22.421875 25.199219 22.402344 25.261719 22.378906 C 25.515625 22.015625 25.515625 22.015625 25.621094 21.601562 C 25.660156 21.601562 25.699219 21.601562 25.738281 21.601562 C 26.003906 21.085938 26.253906 20.578125 26.453125 20.035156 C 26.515625 19.871094 26.585938 19.71875 26.660156 19.558594 C 26.746094 19.371094 26.785156 19.230469 26.761719 19.019531 C 26.800781 19.019531 26.839844 19.019531 26.878906 19.019531 C 26.886719 18.976562 26.894531 18.933594 26.902344 18.886719 C 26.910156 18.832031 26.921875 18.773438 26.933594 18.710938 C 26.941406 18.65625 26.953125 18.597656 26.960938 18.539062 C 27 18.359375 27 18.359375 27.058594 18.191406 C 27.136719 17.953125 27.15625 17.722656 27.179688 17.476562 C 27.207031 17.191406 27.238281 16.917969 27.300781 16.640625 C 27.382812 16.246094 27.386719 15.855469 27.398438 15.453125 C 27.398438 15.390625 27.398438 15.390625 27.402344 15.328125 C 27.410156 15.019531 27.414062 14.710938 27.421875 14.398438 C 27.421875 14.332031 27.421875 14.332031 27.421875 14.261719 C 27.429688 13.980469 27.433594 13.703125 27.433594 13.425781 C 27.433594 13.335938 27.4375 13.25 27.4375 13.160156 C 27.445312 12.53125 27.375 11.953125 27.238281 11.339844 C 27.230469 11.289062 27.21875 11.238281 27.207031 11.183594 C 27.101562 10.714844 26.976562 10.273438 26.761719 9.839844 C 26.71875 9.839844 26.679688 9.839844 26.640625 9.839844 C 26.632812 9.78125 26.621094 9.726562 26.613281 9.667969 C 26.589844 9.488281 26.589844 9.488281 26.519531 9.359375 C 26.480469 9.359375 26.441406 9.359375 26.398438 9.359375 C 26.375 9.265625 26.375 9.265625 26.351562 9.167969 C 26.289062 8.964844 26.226562 8.8125 26.101562 8.640625 C 26.058594 8.640625 26.019531 8.640625 25.980469 8.640625 C 25.976562 8.582031 25.976562 8.582031 25.972656 8.519531 C 25.859375 8.136719 25.542969 7.832031 25.277344 7.539062 C 25.199219 7.441406 25.199219 7.441406 25.136719 7.316406 C 25.050781 7.144531 24.917969 7.035156 24.78125 6.898438 C 24.738281 6.847656 24.699219 6.796875 24.65625 6.742188 C 24.546875 6.605469 24.445312 6.511719 24.300781 6.421875 C 24.261719 6.421875 24.222656 6.421875 24.179688 6.421875 C 24.265625 6.613281 24.375 6.757812 24.515625 6.914062 C 24.574219 6.980469 24.574219 6.980469 24.632812 7.042969 C 24.675781 7.089844 24.675781 7.089844 24.71875 7.140625 C 24.546875 7.007812 24.421875 6.902344 24.300781 6.71875 C 24.261719 6.71875 24.222656 6.71875 24.179688 6.71875 C 24.15625 6.667969 24.15625 6.667969 24.132812 6.613281 C 24.054688 6.472656 23.972656 6.382812 23.859375 6.273438 C 23.730469 6.152344 23.628906 6.046875 23.527344 5.902344 C 23.375 5.730469 23.214844 5.648438 23.011719 5.542969 C 22.625 5.335938 22.261719 5.085938 21.902344 4.828125 C 21.433594 4.5 20.957031 4.214844 20.417969 4.015625 C 20.289062 3.964844 20.171875 3.90625 20.050781 3.839844 C 19.78125 3.699219 19.496094 3.621094 19.203125 3.535156 C 19.019531 3.480469 19.019531 3.480469 18.875 3.421875 C 18.675781 3.34375 18.46875 3.289062 18.261719 3.238281 C 18.21875 3.230469 18.179688 3.21875 18.136719 3.207031 C 17.792969 3.125 17.449219 3.058594 17.101562 3 C 17.398438 2.96875 17.398438 2.96875 17.699219 2.941406 C 16.496094 2.136719 13.65625 2.558594 12.359375 3 Z M 12.359375 3 "/>
<path style=" stroke:none;fill-rule:nonzero;fill:rgb(37.64706%,29.411766%,22.352941%);fill-opacity:1;" d="M 14.578125 15.300781 C 14.660156 15.328125 14.660156 15.328125 14.746094 15.359375 C 14.8125 15.390625 14.8125 15.390625 14.878906 15.421875 C 14.929688 15.546875 14.929688 15.546875 14.941406 15.660156 C 14.960938 15.601562 14.980469 15.542969 15 15.480469 C 15.121094 15.402344 15.121094 15.402344 15.277344 15.328125 C 15.328125 15.300781 15.378906 15.277344 15.429688 15.25 C 15.800781 15.097656 16.136719 15.035156 16.535156 15.035156 C 16.582031 15.035156 16.628906 15.035156 16.675781 15.03125 C 17.179688 15.042969 17.609375 15.195312 18.058594 15.421875 C 18.078125 16.84375 18.097656 18.269531 18.121094 19.738281 C 18.160156 19.738281 18.199219 19.738281 18.238281 19.738281 C 18.238281 18.632812 18.238281 17.523438 18.238281 16.378906 C 18.359375 16.320312 18.359375 16.320312 18.78125 16.320312 C 18.78125 17.765625 18.78125 19.210938 18.78125 20.699219 C 18.542969 20.679688 18.304688 20.660156 18.058594 20.640625 C 17.160156 20.613281 16.390625 20.664062 15.53125 20.953125 C 15.359375 21 15.359375 21 15.121094 21 C 15.089844 20.734375 15.089844 20.734375 15.058594 20.460938 C 15 20.441406 14.941406 20.421875 14.878906 20.398438 C 14.878906 20.597656 14.878906 20.796875 14.878906 21 C 14.546875 20.964844 14.230469 20.90625 13.910156 20.820312 C 13.375 20.679688 13.375 20.679688 12.828125 20.632812 C 12.769531 20.632812 12.710938 20.632812 12.648438 20.632812 C 12.589844 20.632812 12.527344 20.632812 12.464844 20.632812 C 12.40625 20.632812 12.34375 20.632812 12.285156 20.632812 C 12.222656 20.632812 12.164062 20.632812 12.105469 20.632812 C 12.023438 20.632812 12.023438 20.632812 11.941406 20.632812 C 11.703125 20.640625 11.460938 20.671875 11.21875 20.699219 C 11.21875 19.273438 11.21875 17.847656 11.21875 16.378906 C 11.339844 16.378906 11.457031 16.378906 11.578125 16.378906 C 11.601562 17.628906 11.621094 18.875 11.640625 20.160156 C 11.917969 20.140625 12.195312 20.121094 12.480469 20.101562 C 12.480469 20.039062 12.480469 19.980469 12.480469 19.921875 C 12.300781 19.878906 12.125 19.839844 11.941406 19.800781 C 11.941406 18.355469 11.941406 16.910156 11.941406 15.421875 C 12.800781 14.988281 13.6875 14.878906 14.578125 15.300781 Z M 14.578125 15.300781 "/>
<path style=" stroke:none;fill-rule:nonzero;fill:rgb(37.64706%,29.411766%,22.352941%);fill-opacity:1;" d="M 17.289062 9.316406 C 17.378906 9.351562 17.472656 9.382812 17.566406 9.410156 C 17.871094 9.519531 18.15625 9.65625 18.445312 9.796875 C 18.507812 9.824219 18.566406 9.851562 18.628906 9.878906 C 18.988281 10.050781 19.273438 10.230469 19.558594 10.5 C 19.65625 10.578125 19.753906 10.652344 19.851562 10.730469 C 20.734375 11.429688 20.734375 11.429688 20.773438 11.757812 C 20.78125 12.003906 20.78125 12.140625 20.65625 12.355469 C 20.472656 12.523438 20.355469 12.585938 20.113281 12.632812 C 19.8125 12.582031 19.65625 12.386719 19.441406 12.179688 C 18.035156 10.878906 16.457031 10.320312 14.554688 10.359375 C 14.105469 10.378906 13.691406 10.445312 13.261719 10.558594 C 13.140625 10.585938 13.023438 10.609375 12.902344 10.632812 C 12.832031 10.644531 12.832031 10.644531 12.757812 10.660156 C 12.726562 10.667969 12.695312 10.671875 12.660156 10.679688 C 12.660156 10.71875 12.660156 10.757812 12.660156 10.800781 C 12.625 10.8125 12.59375 10.820312 12.558594 10.832031 C 11.886719 11.078125 11.292969 11.480469 10.78125 11.972656 C 10.679688 12.058594 10.679688 12.058594 10.558594 12.058594 C 10.535156 12.113281 10.535156 12.113281 10.511719 12.167969 C 10.398438 12.378906 10.308594 12.464844 10.078125 12.539062 C 9.652344 12.582031 9.652344 12.582031 9.425781 12.402344 C 9.179688 12.089844 9.179688 12.089844 9.175781 11.867188 C 9.265625 11.554688 9.429688 11.386719 9.660156 11.160156 C 9.703125 11.117188 9.75 11.074219 9.792969 11.027344 C 10.453125 10.410156 11.1875 9.980469 12 9.601562 C 12.054688 9.574219 12.105469 9.550781 12.160156 9.523438 C 12.285156 9.464844 12.414062 9.410156 12.539062 9.359375 C 12.578125 9.34375 12.617188 9.328125 12.65625 9.3125 C 14.039062 8.796875 15.914062 8.777344 17.289062 9.316406 Z M 17.289062 9.316406 "/>
<path style=" stroke:none;fill-rule:nonzero;fill:rgb(36.862746%,28.627452%,21.960784%);fill-opacity:1;" d="M 16.535156 15.035156 C 16.582031 15.035156 16.628906 15.035156 16.675781 15.03125 C 17.082031 15.042969 17.695312 15.117188 18 15.421875 C 18.003906 15.554688 18.007812 15.6875 18.007812 15.824219 C 18.007812 15.867188 18.007812 15.90625 18.007812 15.949219 C 18.007812 16.089844 18.007812 16.230469 18.003906 16.371094 C 18.003906 16.46875 18.003906 16.5625 18.003906 16.660156 C 18.003906 16.917969 18.003906 17.171875 18.003906 17.425781 C 18.003906 17.6875 18.003906 17.945312 18.003906 18.207031 C 18.003906 18.71875 18 19.230469 18 19.738281 C 17.953125 19.742188 17.902344 19.742188 17.855469 19.742188 C 17.632812 19.75 17.414062 19.757812 17.191406 19.765625 C 17.078125 19.765625 17.078125 19.765625 16.960938 19.769531 C 16.445312 19.789062 15.976562 19.839844 15.480469 19.980469 C 15.332031 20.007812 15.332031 20.007812 15.179688 20.039062 C 15.179688 18.515625 15.179688 16.992188 15.179688 15.421875 C 15.652344 15.148438 16.003906 15.035156 16.535156 15.035156 Z M 16.535156 15.035156 "/>
<path style=" stroke:none;fill-rule:nonzero;fill:rgb(90.196079%,79.215688%,70.980394%);fill-opacity:1;" d="M 14.820312 15.421875 C 14.859375 15.5 14.898438 15.578125 14.941406 15.660156 C 14.960938 15.601562 14.980469 15.542969 15 15.480469 C 15.089844 15.449219 15.089844 15.449219 15.179688 15.421875 C 15.179688 16.945312 15.179688 18.46875 15.179688 20.039062 C 15.4375 19.960938 15.695312 19.882812 15.960938 19.800781 C 16.632812 19.6875 17.320312 19.738281 18 19.738281 C 18 18.3125 18 16.890625 18 15.421875 C 18.019531 15.421875 18.039062 15.421875 18.058594 15.421875 C 18.078125 16.84375 18.097656 18.269531 18.121094 19.738281 C 18.160156 19.738281 18.199219 19.738281 18.238281 19.738281 C 18.238281 18.632812 18.238281 17.523438 18.238281 16.378906 C 18.359375 16.320312 18.359375 16.320312 18.78125 16.320312 C 18.78125 17.765625 18.78125 19.210938 18.78125 20.699219 C 18.542969 20.679688 18.304688 20.660156 18.058594 20.640625 C 17.160156 20.613281 16.390625 20.664062 15.53125 20.953125 C 15.359375 21 15.359375 21 15.121094 21 C 15.089844 20.734375 15.089844 20.734375 15.058594 20.460938 C 15 20.441406 14.941406 20.421875 14.878906 20.398438 C 14.878906 20.597656 14.878906 20.796875 14.878906 21 C 14.546875 20.964844 14.230469 20.90625 13.910156 20.820312 C 13.375 20.679688 13.375 20.679688 12.828125 20.632812 C 12.769531 20.632812 12.710938 20.632812 12.648438 20.632812 C 12.589844 20.632812 12.527344 20.632812 12.464844 20.632812 C 12.40625 20.632812 12.34375 20.632812 12.285156 20.632812 C 12.222656 20.632812 12.164062 20.632812 12.105469 20.632812 C 12.023438 20.632812 12.023438 20.632812 11.941406 20.632812 C 11.703125 20.640625 11.460938 20.671875 11.21875 20.699219 C 11.21875 19.273438 11.21875 17.847656 11.21875 16.378906 C 11.339844 16.378906 11.457031 16.378906 11.578125 16.378906 C 11.601562 17.628906 11.621094 18.875 11.640625 20.160156 C 11.917969 20.140625 12.195312 20.121094 12.480469 20.101562 C 12.480469 20.039062 12.480469 19.980469 12.480469 19.921875 C 12.382812 19.878906 12.28125 19.839844 12.179688 19.800781 C 12.179688 19.78125 12.179688 19.761719 12.179688 19.738281 C 12.40625 19.730469 12.632812 19.726562 12.859375 19.722656 C 12.921875 19.71875 12.984375 19.714844 13.046875 19.714844 C 13.710938 19.703125 14.121094 19.855469 14.820312 20.039062 C 14.820312 18.515625 14.820312 16.992188 14.820312 15.421875 Z M 14.820312 15.421875 "/>
<path style=" stroke:none;fill-rule:nonzero;fill:rgb(40.392157%,31.764707%,23.921569%);fill-opacity:1;" d="M 18.359375 16.320312 C 18.5 16.320312 18.636719 16.320312 18.78125 16.320312 C 18.78125 17.765625 18.78125 19.210938 18.78125 20.699219 C 18.542969 20.679688 18.304688 20.660156 18.058594 20.640625 C 17.15625 20.613281 16.386719 20.667969 15.523438 20.953125 C 15.359375 21 15.359375 21 15.179688 21 C 15.179688 20.800781 15.179688 20.605469 15.179688 20.398438 C 16.070312 20.117188 16.953125 19.972656 17.878906 20.160156 C 18.019531 20.160156 18.15625 20.160156 18.300781 20.160156 C 18.320312 18.894531 18.339844 17.625 18.359375 16.320312 Z M 18.359375 16.320312 "/>
<path style=" stroke:none;fill-rule:nonzero;fill:rgb(38.431373%,29.803923%,23.137255%);fill-opacity:1;" d="M 20.707031 15.964844 C 20.886719 16.023438 20.949219 16.050781 21.058594 16.199219 C 21.082031 16.359375 21.082031 16.359375 21.085938 16.558594 C 21.085938 16.628906 21.085938 16.703125 21.089844 16.78125 C 21.089844 16.859375 21.089844 16.941406 21.089844 17.019531 C 21.089844 17.101562 21.089844 17.1875 21.089844 17.269531 C 21.089844 17.441406 21.089844 17.613281 21.089844 17.785156 C 21.089844 18.007812 21.089844 18.230469 21.09375 18.449219 C 21.09375 18.621094 21.09375 18.789062 21.09375 18.960938 C 21.09375 19.042969 21.097656 19.125 21.097656 19.203125 C 21.105469 19.921875 21.105469 19.921875 20.917969 20.121094 C 20.726562 20.238281 20.621094 20.25 20.398438 20.21875 C 20.28125 20.160156 20.28125 20.160156 20.242188 20.058594 C 20.214844 19.890625 20.210938 19.726562 20.207031 19.554688 C 20.207031 19.480469 20.207031 19.40625 20.207031 19.332031 C 20.203125 19.25 20.203125 19.171875 20.203125 19.089844 C 20.203125 19.050781 20.203125 19.011719 20.203125 18.96875 C 20.199219 18.753906 20.199219 18.539062 20.199219 18.324219 C 20.199219 18.148438 20.195312 17.972656 20.195312 17.792969 C 20.191406 17.578125 20.191406 17.367188 20.1875 17.152344 C 20.1875 17.070312 20.1875 16.988281 20.1875 16.90625 C 20.183594 16.792969 20.183594 16.679688 20.183594 16.566406 C 20.183594 16.5 20.183594 16.433594 20.183594 16.367188 C 20.21875 16.199219 20.21875 16.199219 20.359375 16.058594 C 20.519531 15.960938 20.519531 15.960938 20.707031 15.964844 Z M 20.707031 15.964844 "/>
<path style=" stroke:none;fill-rule:nonzero;fill:rgb(38.431373%,29.803923%,22.352941%);fill-opacity:1;" d="M 9.394531 15.964844 C 9.664062 16.035156 9.664062 16.035156 9.78125 16.199219 C 9.804688 16.359375 9.804688 16.359375 9.804688 16.558594 C 9.804688 16.628906 9.804688 16.703125 9.804688 16.78125 C 9.804688 16.859375 9.804688 16.941406 9.804688 17.019531 C 9.804688 17.101562 9.804688 17.1875 9.808594 17.269531 C 9.808594 17.441406 9.808594 17.613281 9.808594 17.785156 C 9.804688 18.007812 9.808594 18.230469 9.808594 18.449219 C 9.808594 18.621094 9.808594 18.789062 9.808594 18.960938 C 9.808594 19.042969 9.808594 19.125 9.8125 19.203125 C 9.8125 19.320312 9.8125 19.433594 9.808594 19.546875 C 9.808594 19.613281 9.808594 19.675781 9.808594 19.742188 C 9.773438 19.964844 9.695312 20.0625 9.539062 20.21875 C 9.359375 20.257812 9.359375 20.257812 9.179688 20.21875 C 8.960938 20 8.910156 19.855469 8.910156 19.546875 C 8.90625 19.472656 8.90625 19.402344 8.90625 19.324219 C 8.90625 19.246094 8.90625 19.167969 8.90625 19.085938 C 8.90625 19.003906 8.90625 18.921875 8.90625 18.839844 C 8.90625 18.664062 8.90625 18.492188 8.910156 18.320312 C 8.910156 18.101562 8.910156 17.878906 8.90625 17.660156 C 8.90625 17.488281 8.90625 17.320312 8.90625 17.148438 C 8.90625 17.027344 8.90625 16.90625 8.90625 16.785156 C 8.90625 16.714844 8.90625 16.640625 8.910156 16.5625 C 8.910156 16.5 8.910156 16.433594 8.910156 16.367188 C 8.964844 16.070312 9.09375 15.957031 9.394531 15.964844 Z M 9.394531 15.964844 "/>
<path style=" stroke:none;fill-rule:nonzero;fill:rgb(38.82353%,30.19608%,22.745098%);fill-opacity:1;" d="M 11.21875 16.378906 C 11.339844 16.378906 11.457031 16.378906 11.578125 16.378906 C 11.601562 17.628906 11.621094 18.875 11.640625 20.160156 C 11.9375 20.128906 11.9375 20.128906 12.238281 20.101562 C 13.117188 20.046875 14.019531 20.058594 14.820312 20.460938 C 14.820312 20.636719 14.820312 20.816406 14.820312 21 C 14.554688 20.941406 14.289062 20.882812 14.027344 20.816406 C 13.085938 20.585938 12.175781 20.59375 11.21875 20.699219 C 11.21875 19.273438 11.21875 17.847656 11.21875 16.378906 Z M 11.21875 16.378906 "/>
<path style=" stroke:none;fill-rule:nonzero;fill:rgb(37.254903%,29.019609%,21.960784%);fill-opacity:1;" d="M 7.5 16.800781 C 7.855469 16.800781 8.210938 16.800781 8.578125 16.800781 C 8.582031 17.167969 8.582031 17.53125 8.582031 17.898438 C 8.582031 18.023438 8.585938 18.148438 8.585938 18.273438 C 8.585938 18.453125 8.585938 18.632812 8.585938 18.808594 C 8.585938 18.867188 8.585938 18.921875 8.585938 18.980469 C 8.585938 19.058594 8.585938 19.058594 8.585938 19.136719 C 8.585938 19.183594 8.585938 19.226562 8.585938 19.273438 C 8.578125 19.378906 8.578125 19.378906 8.519531 19.441406 C 8.183594 19.441406 7.847656 19.441406 7.5 19.441406 C 7.5 18.570312 7.5 17.699219 7.5 16.800781 Z M 7.5 16.800781 "/>
<path style=" stroke:none;fill-rule:nonzero;fill:rgb(37.254903%,28.627452%,21.176471%);fill-opacity:1;" d="M 21.421875 16.800781 C 21.757812 16.800781 22.09375 16.800781 22.441406 16.800781 C 22.441406 17.671875 22.441406 18.542969 22.441406 19.441406 C 22.101562 19.441406 21.765625 19.441406 21.421875 19.441406 C 21.421875 18.570312 21.421875 17.699219 21.421875 16.800781 Z M 21.421875 16.800781 "/>
<path style=" stroke:none;fill-rule:nonzero;fill:rgb(40.000001%,31.37255%,23.921569%);fill-opacity:1;" d="M 8.941406 12.601562 C 9.167969 12.632812 9.269531 12.730469 9.421875 12.898438 C 9.332031 13.136719 9.21875 13.355469 9.101562 13.578125 C 8.644531 14.480469 8.507812 15.382812 8.398438 16.378906 C 8.183594 16.378906 7.964844 16.378906 7.738281 16.378906 C 7.773438 15.046875 8.09375 13.667969 8.941406 12.601562 Z M 8.941406 12.601562 "/>
<path style=" stroke:none;fill-rule:nonzero;fill:rgb(38.82353%,30.19608%,22.745098%);fill-opacity:1;" d="M 20.941406 12.539062 C 20.980469 12.539062 21.019531 12.539062 21.058594 12.539062 C 21.382812 12.992188 21.78125 13.648438 21.78125 14.21875 C 21.820312 14.21875 21.859375 14.21875 21.898438 14.21875 C 22.117188 14.9375 22.222656 15.628906 22.199219 16.378906 C 22.003906 16.378906 21.804688 16.378906 21.601562 16.378906 C 21.59375 16.316406 21.589844 16.253906 21.582031 16.191406 C 21.464844 15.015625 21.175781 13.957031 20.519531 12.960938 C 20.519531 12.921875 20.519531 12.878906 20.519531 12.839844 C 20.636719 12.757812 20.757812 12.675781 20.878906 12.601562 C 20.898438 12.582031 20.917969 12.558594 20.941406 12.539062 Z M 20.941406 12.539062 "/>
<path style=" stroke:none;fill-rule:nonzero;fill:rgb(70.980394%,60.392159%,51.764709%);fill-opacity:1;" d="M 2.941406 17.160156 C 2.960938 17.160156 2.980469 17.160156 3 17.160156 C 3.007812 17.199219 3.011719 17.238281 3.019531 17.277344 C 3.046875 17.457031 3.078125 17.632812 3.109375 17.8125 C 3.117188 17.875 3.128906 17.933594 3.140625 17.996094 C 3.199219 18.347656 3.273438 18.679688 3.386719 19.015625 C 3.421875 19.140625 3.421875 19.140625 3.421875 19.320312 C 3.460938 19.320312 3.5 19.320312 3.539062 19.320312 C 3.539062 19.222656 3.539062 19.121094 3.539062 19.019531 C 3.710938 19.1875 3.75 19.390625 3.816406 19.617188 C 3.832031 19.660156 3.84375 19.703125 3.859375 19.75 C 3.914062 19.929688 3.960938 20.085938 3.960938 20.28125 C 4 20.28125 4.039062 20.28125 4.078125 20.28125 C 4.1875 20.464844 4.199219 20.535156 4.199219 20.761719 C 4.238281 20.773438 4.273438 20.789062 4.308594 20.804688 C 4.664062 21.011719 4.78125 21.515625 4.882812 21.886719 C 4.925781 22.035156 4.976562 22.175781 5.039062 22.320312 C 5.097656 22.300781 5.160156 22.28125 5.21875 22.261719 C 5.257812 22.339844 5.300781 22.417969 5.339844 22.5 C 5.28125 22.539062 5.222656 22.578125 5.160156 22.621094 C 5.191406 22.828125 5.191406 22.828125 5.21875 23.039062 C 4.984375 22.960938 4.964844 22.878906 4.847656 22.664062 C 4.8125 22.597656 4.773438 22.53125 4.738281 22.464844 C 4.699219 22.394531 4.664062 22.328125 4.625 22.257812 C 4.585938 22.1875 4.550781 22.121094 4.511719 22.050781 C 4.355469 21.769531 4.203125 21.488281 4.066406 21.195312 C 3.980469 20.984375 3.980469 20.984375 3.78125 20.941406 C 3.035156 19.9375 2.90625 18.355469 2.941406 17.160156 Z M 2.941406 17.160156 "/>
<path style=" stroke:none;fill-rule:nonzero;fill:rgb(80.784315%,69.803923%,60.784316%);fill-opacity:1;" d="M 2.578125 14.398438 C 2.621094 14.398438 2.660156 14.398438 2.699219 14.398438 C 2.703125 14.480469 2.707031 14.558594 2.710938 14.640625 C 2.714844 14.742188 2.722656 14.847656 2.726562 14.953125 C 2.730469 15.003906 2.730469 15.054688 2.734375 15.109375 C 2.734375 15.160156 2.738281 15.210938 2.742188 15.261719 C 2.746094 15.332031 2.746094 15.332031 2.746094 15.402344 C 2.761719 15.550781 2.789062 15.695312 2.820312 15.839844 C 2.839844 15.363281 2.859375 14.890625 2.878906 14.398438 C 2.898438 14.398438 2.917969 14.398438 2.941406 14.398438 C 2.960938 15.09375 2.980469 15.785156 3 16.5 C 3.039062 16.5 3.078125 16.5 3.121094 16.5 C 3.128906 16.558594 3.140625 16.617188 3.148438 16.675781 C 3.214844 17.074219 3.285156 17.472656 3.382812 17.863281 C 3.394531 17.921875 3.410156 17.980469 3.421875 18.039062 C 3.449219 18.152344 3.480469 18.265625 3.507812 18.378906 C 3.589844 18.71875 3.605469 18.976562 3.539062 19.320312 C 3.5 19.320312 3.460938 19.320312 3.421875 19.320312 C 3.253906 18.742188 3.09375 18.175781 3 17.578125 C 3.019531 17.957031 3.039062 18.332031 3.058594 18.71875 C 2.9375 18.539062 2.921875 18.46875 2.902344 18.257812 C 2.898438 18.210938 2.894531 18.160156 2.890625 18.113281 C 2.886719 18.074219 2.882812 18.039062 2.878906 18 C 2.839844 18 2.800781 18 2.761719 18 C 2.597656 16.792969 2.558594 15.617188 2.578125 14.398438 Z M 2.578125 14.398438 "/>
<path style=" stroke:none;fill-rule:nonzero;fill:rgb(84.313726%,74.117649%,65.490198%);fill-opacity:1;" d="M 18 15.421875 C 18.019531 15.421875 18.039062 15.421875 18.058594 15.421875 C 18.078125 16.84375 18.097656 18.269531 18.121094 19.738281 C 18.160156 19.738281 18.199219 19.738281 18.238281 19.738281 C 18.238281 18.632812 18.238281 17.523438 18.238281 16.378906 C 18.28125 16.378906 18.320312 16.378906 18.359375 16.378906 C 18.363281 16.871094 18.363281 17.363281 18.363281 17.855469 C 18.363281 18.082031 18.363281 18.3125 18.363281 18.539062 C 18.363281 18.761719 18.367188 18.980469 18.367188 19.199219 C 18.367188 19.285156 18.367188 19.371094 18.367188 19.453125 C 18.367188 19.570312 18.367188 19.6875 18.367188 19.804688 C 18.367188 19.875 18.367188 19.941406 18.367188 20.007812 C 18.359375 20.160156 18.359375 20.160156 18.300781 20.21875 C 18.113281 20.226562 17.9375 20.234375 17.753906 20.191406 C 17.492188 20.144531 17.234375 20.148438 16.972656 20.148438 C 16.886719 20.148438 16.886719 20.148438 16.800781 20.148438 C 16.410156 20.152344 16.039062 20.179688 15.660156 20.28125 C 15.660156 20.242188 15.660156 20.199219 15.660156 20.160156 C 15.738281 20.160156 15.820312 20.160156 15.898438 20.160156 C 15.898438 20.101562 15.898438 20.042969 15.898438 19.980469 C 15.6875 20.015625 15.5 20.074219 15.300781 20.160156 C 15.261719 20.121094 15.222656 20.082031 15.179688 20.039062 C 15.300781 20 15.425781 19.960938 15.546875 19.921875 C 15.648438 19.890625 15.648438 19.890625 15.753906 19.859375 C 16.515625 19.640625 17.136719 19.738281 18 19.738281 C 18 18.3125 18 16.890625 18 15.421875 Z M 18 15.421875 "/>
<path style=" stroke:none;fill-rule:nonzero;fill:rgb(69.803923%,59.215689%,50.196081%);fill-opacity:1;" d="M 5.699219 7.441406 C 5.519531 7.820312 5.34375 8.105469 5.039062 8.398438 C 4.960938 8.53125 4.960938 8.53125 4.921875 8.640625 C 4.878906 8.640625 4.839844 8.640625 4.800781 8.640625 C 4.769531 8.726562 4.738281 8.816406 4.710938 8.902344 C 4.691406 8.953125 4.675781 9 4.660156 9.050781 C 4.613281 9.175781 4.613281 9.175781 4.621094 9.300781 C 4.660156 9.242188 4.699219 9.179688 4.738281 9.121094 C 4.78125 9.121094 4.820312 9.121094 4.859375 9.121094 C 4.753906 9.402344 4.613281 9.65625 4.464844 9.917969 C 4.375 10.078125 4.375 10.078125 4.320312 10.246094 C 4.300781 10.289062 4.28125 10.335938 4.261719 10.378906 C 4.171875 10.410156 4.171875 10.410156 4.078125 10.441406 C 4.078125 10.480469 4.078125 10.519531 4.078125 10.558594 C 3.992188 10.589844 3.992188 10.589844 3.898438 10.621094 C 3.828125 10.761719 3.765625 10.898438 3.707031 11.042969 C 3.691406 11.082031 3.675781 11.125 3.660156 11.164062 C 3.617188 11.261719 3.578125 11.359375 3.539062 11.460938 C 3.425781 11.265625 3.40625 11.128906 3.414062 10.90625 C 3.414062 10.851562 3.414062 10.796875 3.414062 10.742188 C 3.417969 10.703125 3.417969 10.660156 3.421875 10.621094 C 3.441406 10.660156 3.460938 10.699219 3.480469 10.738281 C 3.519531 10.738281 3.558594 10.738281 3.601562 10.738281 C 3.605469 10.699219 3.609375 10.660156 3.617188 10.617188 C 3.671875 10.390625 3.773438 10.195312 3.882812 9.984375 C 3.925781 9.902344 3.96875 9.816406 4.011719 9.730469 C 4.035156 9.6875 4.054688 9.644531 4.078125 9.601562 C 4.164062 9.433594 4.242188 9.265625 4.324219 9.097656 C 4.589844 8.566406 4.9375 8.113281 5.339844 7.679688 C 5.386719 7.628906 5.429688 7.582031 5.480469 7.53125 C 5.578125 7.441406 5.578125 7.441406 5.699219 7.441406 Z M 5.699219 7.441406 "/>
<path style=" stroke:none;fill-rule:nonzero;fill:rgb(86.666667%,76.862746%,68.235296%);fill-opacity:1;" d="M 14.820312 15.421875 C 14.839844 15.421875 14.859375 15.421875 14.878906 15.421875 C 14.898438 16.964844 14.917969 18.507812 14.941406 20.101562 C 14.800781 20.160156 14.664062 20.21875 14.519531 20.28125 C 14.460938 20.308594 14.460938 20.308594 14.398438 20.339844 C 14.277344 20.316406 14.160156 20.289062 14.039062 20.257812 C 13.523438 20.140625 13.007812 20.117188 12.480469 20.101562 C 12.480469 20.039062 12.480469 19.980469 12.480469 19.921875 C 12.382812 19.878906 12.28125 19.839844 12.179688 19.800781 C 12.179688 19.78125 12.179688 19.761719 12.179688 19.738281 C 12.40625 19.730469 12.632812 19.726562 12.859375 19.722656 C 12.921875 19.71875 12.984375 19.714844 13.046875 19.714844 C 13.710938 19.703125 14.121094 19.855469 14.820312 20.039062 C 14.820312 18.515625 14.820312 16.992188 14.820312 15.421875 Z M 14.820312 15.421875 "/>
<path style=" stroke:none;fill-rule:nonzero;fill:rgb(91.764706%,80.784315%,72.156864%);fill-opacity:1;" d="M 17.699219 2.941406 C 17.503906 2.960938 17.304688 2.980469 17.101562 3 C 17.101562 3.019531 17.101562 3.039062 17.101562 3.058594 C 16.683594 3.039062 16.269531 3.019531 15.839844 3 C 15.839844 2.980469 15.839844 2.960938 15.839844 2.941406 C 16.226562 2.910156 16.226562 2.910156 16.621094 2.878906 C 15.609375 2.863281 14.613281 2.871094 13.609375 2.964844 C 13.542969 2.972656 13.542969 2.972656 13.480469 2.980469 C 12.945312 3.027344 12.945312 3.027344 12.421875 3.121094 C 12.398438 3.082031 12.378906 3.039062 12.359375 3 C 13.65625 2.558594 16.496094 2.136719 17.699219 2.941406 Z M 17.699219 2.941406 "/>
<path style=" stroke:none;fill-rule:nonzero;fill:rgb(69.411767%,58.431375%,49.803922%);fill-opacity:1;" d="M 2.941406 17.160156 C 2.960938 17.160156 2.980469 17.160156 3 17.160156 C 3.007812 17.199219 3.011719 17.238281 3.019531 17.277344 C 3.046875 17.457031 3.078125 17.632812 3.109375 17.8125 C 3.117188 17.875 3.128906 17.933594 3.140625 17.996094 C 3.199219 18.347656 3.273438 18.679688 3.386719 19.015625 C 3.421875 19.140625 3.421875 19.140625 3.421875 19.320312 C 3.460938 19.320312 3.5 19.320312 3.539062 19.320312 C 3.539062 19.222656 3.539062 19.121094 3.539062 19.019531 C 3.710938 19.1875 3.75 19.390625 3.816406 19.617188 C 3.832031 19.660156 3.84375 19.703125 3.859375 19.75 C 3.914062 19.929688 3.960938 20.085938 3.960938 20.28125 C 4 20.28125 4.039062 20.28125 4.078125 20.28125 C 4.101562 20.457031 4.121094 20.636719 4.140625 20.820312 C 4 20.804688 4 20.804688 3.839844 20.761719 C 3.5625 20.417969 3.46875 19.9375 3.359375 19.523438 C 3.308594 19.34375 3.246094 19.183594 3.171875 19.011719 C 2.925781 18.414062 2.921875 17.796875 2.941406 17.160156 Z M 2.941406 17.160156 "/>
<path style=" stroke:none;fill-rule:nonzero;fill:rgb(88.235295%,77.64706%,69.01961%);fill-opacity:1;" d="M 5.160156 7.558594 C 5.199219 7.578125 5.238281 7.597656 5.28125 7.621094 C 5.242188 7.824219 5.171875 7.933594 5.039062 8.089844 C 4.648438 8.574219 4.316406 9.128906 4.078125 9.703125 C 3.976562 9.941406 3.855469 10.171875 3.734375 10.402344 C 3.65625 10.5625 3.65625 10.5625 3.601562 10.738281 C 3.558594 10.738281 3.519531 10.738281 3.480469 10.738281 C 3.480469 10.621094 3.480469 10.503906 3.480469 10.378906 C 3.519531 10.378906 3.558594 10.378906 3.601562 10.378906 C 3.601562 10.324219 3.605469 10.265625 3.609375 10.207031 C 3.65625 9.886719 3.816406 9.621094 3.972656 9.335938 C 4 9.285156 4.027344 9.230469 4.058594 9.175781 C 4.441406 8.449219 4.441406 8.449219 4.679688 8.160156 C 4.71875 8.160156 4.757812 8.160156 4.800781 8.160156 C 4.804688 8.128906 4.808594 8.09375 4.8125 8.0625 C 4.882812 7.851562 5.015625 7.726562 5.160156 7.558594 Z M 5.160156 7.558594 "/>
<path style=" stroke:none;fill-rule:nonzero;fill:rgb(70.980394%,60.000002%,50.980395%);fill-opacity:1;" d="M 15.773438 2.800781 C 15.8125 2.800781 15.855469 2.800781 15.898438 2.800781 C 16.589844 2.796875 16.589844 2.796875 16.800781 2.941406 C 16.007812 2.941406 15.214844 2.941406 14.398438 2.941406 C 14.398438 2.980469 14.398438 3.019531 14.398438 3.058594 C 14.234375 3.140625 14.097656 3.132812 13.914062 3.140625 C 13.804688 3.144531 13.804688 3.144531 13.695312 3.148438 C 13.578125 3.148438 13.578125 3.148438 13.460938 3.152344 C 13.386719 3.15625 13.308594 3.160156 13.230469 3.160156 C 13.039062 3.167969 12.851562 3.175781 12.660156 3.179688 C 12.679688 3.121094 12.699219 3.0625 12.71875 3 C 13.738281 2.890625 14.75 2.800781 15.773438 2.800781 Z M 15.773438 2.800781 "/>
<path style=" stroke:none;fill-rule:nonzero;fill:rgb(90.588236%,80.392158%,71.372551%);fill-opacity:1;" d="M 2.578125 14.398438 C 2.621094 14.398438 2.660156 14.398438 2.699219 14.398438 C 2.703125 14.472656 2.707031 14.546875 2.707031 14.621094 C 2.734375 15.269531 2.734375 15.269531 2.824219 15.910156 C 2.929688 16.519531 2.890625 17.148438 2.878906 17.761719 C 2.328125 16.929688 2.5625 15.367188 2.578125 14.398438 Z M 2.578125 14.398438 "/>
<path style=" stroke:none;fill-rule:nonzero;fill:rgb(72.156864%,61.176473%,52.549022%);fill-opacity:1;" d="M 5.699219 7.441406 C 5.519531 7.820312 5.34375 8.105469 5.039062 8.398438 C 4.960938 8.53125 4.960938 8.53125 4.921875 8.640625 C 4.878906 8.640625 4.839844 8.640625 4.800781 8.640625 C 4.691406 8.957031 4.589844 9.277344 4.5 9.601562 C 4.445312 9.582031 4.445312 9.582031 4.386719 9.566406 C 4.257812 9.527344 4.257812 9.527344 4.140625 9.601562 C 4.296875 9.042969 5.046875 7.441406 5.699219 7.441406 Z M 5.699219 7.441406 "/>
<path style=" stroke:none;fill-rule:nonzero;fill:rgb(85.490197%,74.509805%,65.882355%);fill-opacity:1;" d="M 14.398438 2.640625 C 17.175781 2.589844 17.175781 2.589844 17.699219 2.941406 C 17.503906 2.960938 17.304688 2.980469 17.101562 3 C 17.101562 3.019531 17.101562 3.039062 17.101562 3.058594 C 16.683594 3.039062 16.269531 3.019531 15.839844 3 C 15.839844 2.980469 15.839844 2.960938 15.839844 2.941406 C 16.226562 2.910156 16.226562 2.910156 16.621094 2.878906 C 16.046875 2.859375 15.472656 2.839844 14.878906 2.820312 C 14.878906 2.800781 14.878906 2.78125 14.878906 2.761719 C 14.722656 2.738281 14.5625 2.71875 14.398438 2.699219 C 14.398438 2.679688 14.398438 2.660156 14.398438 2.640625 Z M 14.398438 2.640625 "/>
<path style=" stroke:none;fill-rule:nonzero;fill:rgb(72.941178%,61.960787%,53.333336%);fill-opacity:1;" d="M 7.980469 25.621094 C 8.027344 25.636719 8.070312 25.65625 8.117188 25.675781 C 8.230469 25.722656 8.34375 25.761719 8.460938 25.800781 C 8.480469 25.742188 8.5 25.679688 8.519531 25.621094 C 8.804688 25.753906 9.074219 25.914062 9.339844 26.078125 C 9.464844 26.152344 9.589844 26.21875 9.71875 26.28125 C 9.640625 26.28125 9.5625 26.28125 9.480469 26.28125 C 9.480469 26.320312 9.480469 26.359375 9.480469 26.398438 C 9.328125 26.339844 9.175781 26.277344 9.027344 26.207031 C 8.867188 26.15625 8.796875 26.164062 8.640625 26.21875 C 8.640625 26.179688 8.640625 26.140625 8.640625 26.101562 C 8.585938 26.09375 8.535156 26.089844 8.480469 26.085938 C 8.253906 26.035156 8.144531 25.964844 7.980469 25.800781 C 7.980469 25.742188 7.980469 25.679688 7.980469 25.621094 Z M 7.980469 25.621094 "/>
<path style=" stroke:none;fill-rule:nonzero;fill:rgb(82.352942%,71.764708%,62.7451%);fill-opacity:1;" d="M 11.519531 3.359375 C 11.519531 3.417969 11.519531 3.480469 11.519531 3.539062 C 10.984375 3.71875 10.449219 3.894531 9.898438 4.078125 C 9.898438 4.039062 9.898438 4 9.898438 3.960938 C 9.839844 3.941406 9.78125 3.921875 9.71875 3.898438 C 10.109375 3.691406 10.5 3.554688 10.921875 3.421875 C 10.984375 3.398438 11.046875 3.375 11.113281 3.351562 C 11.285156 3.296875 11.355469 3.296875 11.519531 3.359375 Z M 11.519531 3.359375 "/>
<path style=" stroke:none;fill-rule:nonzero;fill:rgb(87.843138%,77.64706%,68.627453%);fill-opacity:1;" d="M 4.078125 21 C 4.242188 21.144531 4.328125 21.292969 4.425781 21.488281 C 4.457031 21.546875 4.488281 21.605469 4.519531 21.667969 C 4.566406 21.761719 4.566406 21.761719 4.617188 21.859375 C 4.847656 22.328125 4.847656 22.328125 5.121094 22.777344 C 5.21875 22.921875 5.21875 22.921875 5.21875 23.039062 C 4.984375 22.960938 4.960938 22.871094 4.84375 22.65625 C 4.789062 22.554688 4.789062 22.554688 4.730469 22.453125 C 4.691406 22.382812 4.65625 22.3125 4.617188 22.242188 C 4.578125 22.171875 4.539062 22.101562 4.5 22.03125 C 4.398438 21.847656 4.300781 21.664062 4.199219 21.480469 C 4.175781 21.4375 4.152344 21.394531 4.128906 21.351562 C 4.078125 21.238281 4.078125 21.238281 4.078125 21 Z M 4.078125 21 "/>
<path style=" stroke:none;fill-rule:nonzero;fill:rgb(76.862746%,65.882355%,57.254905%);fill-opacity:1;" d="M 6.539062 24.121094 C 6.859375 24.140625 7.019531 24.320312 7.238281 24.53125 C 7.289062 24.582031 7.289062 24.582031 7.339844 24.632812 C 7.496094 24.777344 7.648438 24.929688 7.800781 25.078125 C 7.667969 25.128906 7.667969 25.128906 7.5 25.140625 C 7.359375 25.011719 7.359375 25.011719 7.199219 24.839844 C 7.140625 24.78125 7.085938 24.726562 7.027344 24.667969 C 6.96875 24.609375 6.910156 24.554688 6.851562 24.496094 C 6.820312 24.464844 6.789062 24.4375 6.761719 24.40625 C 6.683594 24.332031 6.613281 24.253906 6.539062 24.179688 C 6.539062 24.160156 6.539062 24.140625 6.539062 24.121094 Z M 6.539062 24.121094 "/>
<path style=" stroke:none;fill-rule:nonzero;fill:rgb(84.705883%,73.725492%,65.098041%);fill-opacity:1;" d="M 3.058594 18.71875 C 3.386719 19.046875 3.472656 19.664062 3.597656 20.097656 C 3.65625 20.285156 3.65625 20.285156 3.757812 20.472656 C 3.839844 20.640625 3.839844 20.640625 3.820312 20.78125 C 3.808594 20.816406 3.792969 20.847656 3.78125 20.878906 C 3.589844 20.664062 3.492188 20.480469 3.410156 20.203125 C 3.390625 20.132812 3.371094 20.0625 3.347656 19.988281 C 3.316406 19.878906 3.316406 19.878906 3.285156 19.765625 C 3.261719 19.691406 3.242188 19.617188 3.21875 19.542969 C 3.058594 18.996094 3.058594 18.996094 3.058594 18.71875 Z M 3.058594 18.71875 "/>
<path style=" stroke:none;fill-rule:nonzero;fill:rgb(89.803922%,78.823531%,70.19608%);fill-opacity:1;" d="M 3.058594 17.28125 C 3.207031 17.425781 3.214844 17.511719 3.257812 17.714844 C 3.269531 17.777344 3.285156 17.839844 3.296875 17.90625 C 3.308594 17.972656 3.324219 18.035156 3.335938 18.105469 C 3.351562 18.171875 3.363281 18.234375 3.378906 18.300781 C 3.441406 18.609375 3.488281 18.886719 3.480469 19.199219 C 3.441406 19.179688 3.402344 19.160156 3.359375 19.140625 C 3.3125 18.996094 3.273438 18.851562 3.234375 18.703125 C 3.21875 18.644531 3.21875 18.644531 3.203125 18.582031 C 3.117188 18.246094 3.050781 17.941406 3.054688 17.589844 C 3.058594 17.53125 3.058594 17.472656 3.058594 17.414062 C 3.058594 17.371094 3.058594 17.324219 3.058594 17.28125 Z M 3.058594 17.28125 "/>
<path style=" stroke:none;fill-rule:nonzero;fill:rgb(74.901962%,63.921571%,55.29412%);fill-opacity:1;" d="M 23.761719 5.941406 C 23.78125 5.980469 23.800781 6.019531 23.820312 6.058594 C 23.878906 6.078125 23.9375 6.097656 24 6.121094 C 24 6.160156 24 6.199219 24 6.238281 C 24.039062 6.253906 24.078125 6.269531 24.117188 6.285156 C 24.15625 6.308594 24.199219 6.335938 24.238281 6.359375 C 24.246094 6.394531 24.253906 6.429688 24.261719 6.46875 C 24.3125 6.648438 24.414062 6.746094 24.542969 6.886719 C 24.585938 6.933594 24.632812 6.980469 24.675781 7.03125 C 24.710938 7.066406 24.746094 7.101562 24.78125 7.140625 C 24.761719 7.179688 24.742188 7.21875 24.71875 7.261719 C 24.648438 7.191406 24.578125 7.125 24.511719 7.058594 C 24.472656 7.019531 24.433594 6.980469 24.390625 6.945312 C 24.300781 6.839844 24.300781 6.839844 24.300781 6.71875 C 24.261719 6.71875 24.222656 6.71875 24.179688 6.71875 C 24.082031 6.625 24.082031 6.625 23.972656 6.496094 C 23.9375 6.453125 23.902344 6.410156 23.863281 6.367188 C 23.765625 6.246094 23.671875 6.125 23.578125 6 C 23.640625 5.980469 23.699219 5.960938 23.761719 5.941406 Z M 23.761719 5.941406 "/>
<path style=" stroke:none;fill-rule:nonzero;fill:rgb(88.235295%,77.254903%,68.627453%);fill-opacity:1;" d="M 24.179688 6.421875 C 24.472656 6.539062 24.65625 6.757812 24.847656 7 C 24.957031 7.152344 24.957031 7.152344 25.140625 7.261719 C 25.121094 7.300781 25.101562 7.339844 25.078125 7.378906 C 24.929688 7.378906 24.804688 7.363281 24.660156 7.320312 C 24.582031 7.195312 24.582031 7.195312 24.539062 7.078125 C 24.597656 7.101562 24.660156 7.121094 24.71875 7.140625 C 24.679688 7.097656 24.640625 7.054688 24.601562 7.011719 C 24.527344 6.929688 24.527344 6.929688 24.449219 6.847656 C 24.398438 6.792969 24.351562 6.738281 24.296875 6.683594 C 24.179688 6.539062 24.179688 6.539062 24.179688 6.421875 Z M 24.179688 6.421875 "/>
<path style=" stroke:none;fill-rule:nonzero;fill:rgb(71.764708%,60.784316%,52.156866%);fill-opacity:1;" d="M 2.941406 17.160156 C 2.960938 17.160156 2.980469 17.160156 3 17.160156 C 3.007812 17.199219 3.015625 17.242188 3.019531 17.28125 C 3.054688 17.464844 3.085938 17.648438 3.117188 17.832031 C 3.128906 17.894531 3.136719 17.957031 3.148438 18.023438 C 3.160156 18.085938 3.171875 18.144531 3.179688 18.207031 C 3.191406 18.265625 3.199219 18.320312 3.210938 18.378906 C 3.238281 18.535156 3.269531 18.6875 3.300781 18.839844 C 3.242188 18.839844 3.179688 18.839844 3.121094 18.839844 C 2.949219 18.277344 2.933594 17.746094 2.941406 17.160156 Z M 2.941406 17.160156 "/>
<path style=" stroke:none;fill-rule:nonzero;fill:rgb(85.490197%,74.901962%,65.882355%);fill-opacity:1;" d="M 2.578125 14.398438 C 2.621094 14.398438 2.660156 14.398438 2.699219 14.398438 C 2.71875 14.835938 2.738281 15.269531 2.761719 15.71875 C 2.71875 15.71875 2.679688 15.71875 2.640625 15.71875 C 2.640625 15.917969 2.640625 16.117188 2.640625 16.320312 C 2.621094 16.320312 2.601562 16.320312 2.578125 16.320312 C 2.578125 15.6875 2.578125 15.054688 2.578125 14.398438 Z M 2.578125 14.398438 "/>
<path style=" stroke:none;fill-rule:nonzero;fill:rgb(74.117649%,63.137257%,54.509807%);fill-opacity:1;" d="M 4.078125 20.398438 C 4.199219 20.519531 4.199219 20.519531 4.199219 20.761719 C 4.238281 20.773438 4.277344 20.789062 4.316406 20.804688 C 4.441406 20.878906 4.441406 20.878906 4.484375 21.007812 C 4.492188 21.0625 4.492188 21.0625 4.5 21.121094 C 4.480469 21.082031 4.460938 21.039062 4.441406 21 C 4.300781 21.039062 4.164062 21.078125 4.019531 21.121094 C 4 21.082031 3.980469 21.039062 3.960938 21 C 3.902344 20.980469 3.839844 20.960938 3.78125 20.941406 C 3.839844 20.761719 3.839844 20.761719 3.964844 20.6875 C 4.003906 20.671875 4.039062 20.65625 4.078125 20.640625 C 4.078125 20.5625 4.078125 20.480469 4.078125 20.398438 Z M 4.078125 20.398438 "/>
<path style=" stroke:none;fill-rule:nonzero;fill:rgb(78.823531%,67.843139%,58.823532%);fill-opacity:1;" d="M 17.699219 2.878906 C 17.699219 2.898438 17.699219 2.917969 17.699219 2.941406 C 17.503906 2.960938 17.304688 2.980469 17.101562 3 C 17.101562 3.019531 17.101562 3.039062 17.101562 3.058594 C 16.683594 3.039062 16.269531 3.019531 15.839844 3 C 15.839844 2.980469 15.839844 2.960938 15.839844 2.941406 C 16.070312 2.917969 16.300781 2.898438 16.535156 2.875 C 16.597656 2.871094 16.664062 2.863281 16.730469 2.855469 C 17.066406 2.828125 17.367188 2.8125 17.699219 2.878906 Z M 17.699219 2.878906 "/>
<path style=" stroke:none;fill-rule:nonzero;fill:rgb(75.686276%,64.705884%,56.078434%);fill-opacity:1;" d="M 5.699219 7.441406 C 5.589844 7.667969 5.472656 7.886719 5.339844 8.101562 C 5.160156 8.160156 5.160156 8.160156 4.980469 8.160156 C 5.066406 7.957031 5.183594 7.820312 5.339844 7.664062 C 5.382812 7.621094 5.425781 7.582031 5.46875 7.535156 C 5.578125 7.441406 5.578125 7.441406 5.699219 7.441406 Z M 5.699219 7.441406 "/>
<path style=" stroke:none;fill-rule:nonzero;fill:rgb(80.784315%,69.803923%,61.176473%);fill-opacity:1;" d="M 2.878906 17.28125 C 2.898438 17.28125 2.917969 17.28125 2.941406 17.28125 C 2.960938 17.464844 2.980469 17.648438 3 17.832031 C 3.003906 17.882812 3.011719 17.933594 3.015625 17.988281 C 3.042969 18.234375 3.066406 18.472656 3.058594 18.71875 C 2.9375 18.539062 2.921875 18.46875 2.902344 18.257812 C 2.898438 18.210938 2.894531 18.160156 2.890625 18.113281 C 2.882812 18.054688 2.882812 18.054688 2.878906 18 C 2.839844 18 2.800781 18 2.761719 18 C 2.761719 17.863281 2.761719 17.722656 2.761719 17.578125 C 2.78125 17.578125 2.800781 17.578125 2.820312 17.578125 C 2.839844 17.480469 2.859375 17.382812 2.878906 17.28125 Z M 2.878906 17.28125 "/>
<path style=" stroke:none;fill-rule:nonzero;fill:rgb(88.627452%,77.64706%,69.01961%);fill-opacity:1;" d="M 13.441406 2.820312 C 13.324219 2.976562 13.253906 3 13.058594 3.042969 C 12.984375 3.054688 12.90625 3.0625 12.828125 3.070312 C 12.753906 3.082031 12.675781 3.089844 12.597656 3.101562 C 12.539062 3.105469 12.480469 3.113281 12.421875 3.121094 C 12.398438 3.082031 12.378906 3.039062 12.359375 3 C 12.496094 2.957031 12.628906 2.917969 12.765625 2.875 C 12.839844 2.851562 12.914062 2.832031 12.992188 2.804688 C 13.179688 2.765625 13.265625 2.75 13.441406 2.820312 Z M 13.441406 2.820312 "/>
<path style=" stroke:none;fill-rule:nonzero;fill:rgb(87.058824%,76.078433%,67.450982%);fill-opacity:1;" d="M 7.078125 5.640625 C 7.078125 5.820312 7.078125 5.820312 6.9375 5.980469 C 6.875 6.042969 6.8125 6.101562 6.75 6.160156 C 6.71875 6.191406 6.6875 6.222656 6.65625 6.253906 C 6.578125 6.328125 6.5 6.40625 6.421875 6.480469 C 6.359375 6.460938 6.300781 6.441406 6.238281 6.421875 C 6.347656 6.3125 6.453125 6.203125 6.558594 6.097656 C 6.589844 6.066406 6.617188 6.035156 6.648438 6.003906 C 6.789062 5.867188 6.917969 5.75 7.078125 5.640625 Z M 7.078125 5.640625 "/>
<path style=" stroke:none;fill-rule:nonzero;fill:rgb(83.529413%,72.549021%,63.921571%);fill-opacity:1;" d="M 6.539062 24.121094 C 6.683594 24.136719 6.683594 24.136719 6.839844 24.179688 C 6.863281 24.230469 6.863281 24.230469 6.890625 24.285156 C 6.984375 24.46875 7.113281 24.570312 7.265625 24.703125 C 7.320312 24.753906 7.375 24.800781 7.433594 24.851562 C 7.476562 24.886719 7.515625 24.921875 7.558594 24.960938 C 7.5 24.988281 7.5 24.988281 7.441406 25.019531 C 7.128906 24.753906 6.816406 24.484375 6.539062 24.179688 C 6.539062 24.160156 6.539062 24.140625 6.539062 24.121094 Z M 6.539062 24.121094 "/>
<path style=" stroke:none;fill-rule:nonzero;fill:rgb(77.254903%,67.058825%,58.039218%);fill-opacity:1;" d="M 11.519531 3.359375 C 11.519531 3.417969 11.519531 3.480469 11.519531 3.539062 C 11.433594 3.570312 11.351562 3.601562 11.265625 3.632812 C 11.21875 3.652344 11.171875 3.667969 11.121094 3.6875 C 10.96875 3.722656 10.886719 3.710938 10.738281 3.660156 C 10.878906 3.601562 11.015625 3.542969 11.160156 3.480469 C 11.121094 3.441406 11.082031 3.402344 11.039062 3.359375 C 11.222656 3.300781 11.335938 3.300781 11.519531 3.359375 Z M 11.519531 3.359375 "/>
<path style=" stroke:none;fill-rule:nonzero;fill:rgb(83.529413%,72.941178%,63.921571%);fill-opacity:1;" d="M 7.980469 25.621094 C 8.273438 25.726562 8.273438 25.726562 8.339844 25.859375 C 8.398438 25.890625 8.457031 25.917969 8.519531 25.949219 C 8.699219 26.039062 8.699219 26.039062 8.761719 26.160156 C 8.664062 26.132812 8.566406 26.109375 8.472656 26.082031 C 8.417969 26.066406 8.363281 26.050781 8.308594 26.035156 C 8.15625 25.976562 8.078125 25.933594 7.980469 25.800781 C 7.980469 25.742188 7.980469 25.679688 7.980469 25.621094 Z M 7.980469 25.621094 "/>
<path style=" stroke:none;fill-rule:nonzero;fill:rgb(84.313726%,73.725492%,64.313728%);fill-opacity:1;" d="M 4.738281 21.480469 C 4.863281 21.636719 4.976562 21.800781 5.085938 21.96875 C 5.113281 22.007812 5.140625 22.050781 5.167969 22.089844 C 5.183594 22.128906 5.203125 22.164062 5.21875 22.199219 C 5.199219 22.238281 5.179688 22.277344 5.160156 22.320312 C 5.121094 22.320312 5.082031 22.320312 5.039062 22.320312 C 4.988281 22.226562 4.941406 22.128906 4.890625 22.035156 C 4.863281 21.980469 4.835938 21.929688 4.804688 21.875 C 4.738281 21.71875 4.738281 21.71875 4.738281 21.480469 Z M 4.738281 21.480469 "/>
<path style=" stroke:none;fill-rule:nonzero;fill:rgb(89.803922%,79.607844%,70.588237%);fill-opacity:1;" d="M 4.261719 9 C 4.300781 9.105469 4.300781 9.105469 4.320312 9.238281 C 4.261719 9.367188 4.261719 9.367188 4.171875 9.496094 C 4.144531 9.539062 4.117188 9.578125 4.085938 9.625 C 4.066406 9.65625 4.042969 9.6875 4.019531 9.71875 C 3.945312 9.570312 3.964844 9.519531 4.003906 9.359375 C 4.015625 9.316406 4.023438 9.277344 4.035156 9.234375 C 4.078125 9.121094 4.078125 9.121094 4.261719 9 Z M 4.261719 9 "/>
<path style=" stroke:none;fill-rule:nonzero;fill:rgb(86.274511%,75.294119%,66.666669%);fill-opacity:1;" d="M 4.738281 8.761719 C 4.761719 8.820312 4.78125 8.878906 4.800781 8.941406 C 4.839844 8.941406 4.878906 8.941406 4.921875 8.941406 C 4.921875 9.039062 4.921875 9.136719 4.921875 9.238281 C 4.898438 9.199219 4.878906 9.160156 4.859375 9.121094 C 4.683594 9.269531 4.683594 9.269531 4.5 9.421875 C 4.546875 9.183594 4.644531 8.976562 4.738281 8.761719 Z M 4.738281 8.761719 "/>
<path style=" stroke:none;fill-rule:nonzero;fill:rgb(86.274511%,75.294119%,66.666669%);fill-opacity:1;" d="M 6.238281 6.539062 C 6.238281 6.578125 6.238281 6.621094 6.238281 6.660156 C 6.179688 6.679688 6.121094 6.699219 6.058594 6.71875 C 5.949219 6.835938 5.851562 6.960938 5.75 7.085938 C 5.636719 7.203125 5.546875 7.257812 5.398438 7.320312 C 5.945312 6.539062 5.945312 6.539062 6.238281 6.539062 Z M 6.238281 6.539062 "/>
<path style=" stroke:none;fill-rule:nonzero;fill:rgb(83.137256%,72.941178%,63.921571%);fill-opacity:1;" d="M 4.078125 21 C 4.277344 21.167969 4.382812 21.371094 4.5 21.601562 C 4.480469 21.640625 4.460938 21.679688 4.441406 21.71875 C 4.402344 21.71875 4.359375 21.71875 4.320312 21.71875 C 4.28125 21.644531 4.238281 21.570312 4.199219 21.496094 C 4.175781 21.453125 4.15625 21.410156 4.132812 21.367188 C 4.078125 21.238281 4.078125 21.238281 4.078125 21 Z M 4.078125 21 "/>
<path style=" stroke:none;fill-rule:nonzero;fill:rgb(49.411765%,40.000001%,32.549021%);fill-opacity:1;" d="M 20.941406 12.539062 C 20.980469 12.539062 21.019531 12.539062 21.058594 12.539062 C 21.078125 12.597656 21.097656 12.660156 21.121094 12.71875 C 20.996094 12.886719 20.929688 12.902344 20.71875 12.941406 C 20.652344 12.949219 20.585938 12.953125 20.519531 12.960938 C 20.519531 12.921875 20.519531 12.878906 20.519531 12.839844 C 20.636719 12.757812 20.757812 12.675781 20.878906 12.601562 C 20.898438 12.582031 20.917969 12.558594 20.941406 12.539062 Z M 20.941406 12.539062 "/>
<path style=" stroke:none;fill-rule:nonzero;fill:rgb(73.725492%,62.7451%,54.11765%);fill-opacity:1;" d="M 13.921875 2.878906 C 14.078125 2.878906 14.238281 2.878906 14.398438 2.878906 C 14.398438 2.9375 14.398438 3 14.398438 3.058594 C 14.238281 3.140625 14.097656 3.125 13.921875 3.121094 C 13.921875 3.039062 13.921875 2.960938 13.921875 2.878906 Z M 13.921875 2.878906 "/>
<path style=" stroke:none;fill-rule:nonzero;fill:rgb(85.490197%,74.901962%,67.058825%);fill-opacity:1;" d="M 20.761719 11.820312 C 20.855469 11.921875 20.855469 11.921875 20.941406 12.058594 C 20.921875 12.226562 20.921875 12.226562 20.878906 12.359375 C 20.761719 12.398438 20.640625 12.4375 20.519531 12.480469 C 20.546875 12.4375 20.578125 12.394531 20.605469 12.351562 C 20.707031 12.171875 20.734375 12.023438 20.761719 11.820312 Z M 20.761719 11.820312 "/>
<path style=" stroke:none;fill-rule:nonzero;fill:rgb(84.705883%,74.117649%,65.098041%);fill-opacity:1;" d="M 10.378906 3.71875 C 10.296875 3.84375 10.226562 3.894531 10.082031 3.925781 C 9.960938 3.941406 9.839844 3.949219 9.71875 3.960938 C 9.921875 3.738281 10.085938 3.710938 10.378906 3.71875 Z M 10.378906 3.71875 "/>
<path style=" stroke:none;fill-rule:nonzero;fill:rgb(75.294119%,64.705884%,55.686277%);fill-opacity:1;" d="M 4.261719 9.238281 C 4.300781 9.28125 4.339844 9.320312 4.378906 9.359375 C 4.417969 9.339844 4.460938 9.320312 4.5 9.300781 C 4.519531 9.359375 4.539062 9.417969 4.558594 9.480469 C 4.539062 9.519531 4.519531 9.558594 4.5 9.601562 C 4.460938 9.589844 4.425781 9.578125 4.386719 9.566406 C 4.257812 9.527344 4.257812 9.527344 4.140625 9.601562 C 4.179688 9.480469 4.21875 9.363281 4.261719 9.238281 Z M 4.261719 9.238281 "/>
<path style=" stroke:none;fill-rule:nonzero;fill:rgb(72.941178%,62.352943%,53.333336%);fill-opacity:1;" d="M 7.378906 24.78125 C 7.554688 24.859375 7.671875 24.941406 7.800781 25.078125 C 7.515625 25.148438 7.515625 25.148438 7.378906 25.078125 C 7.398438 25.039062 7.417969 25 7.441406 24.960938 C 7.421875 24.902344 7.402344 24.839844 7.378906 24.78125 Z M 7.378906 24.78125 "/>
<path style=" stroke:none;fill-rule:nonzero;fill:rgb(69.411767%,58.431375%,49.803922%);fill-opacity:1;" d="M 4.800781 8.460938 C 4.859375 8.640625 4.859375 8.640625 4.78125 8.800781 C 4.746094 8.847656 4.714844 8.894531 4.679688 8.941406 C 4.640625 8.941406 4.601562 8.941406 4.558594 8.941406 C 4.597656 8.800781 4.636719 8.660156 4.679688 8.519531 C 4.71875 8.5 4.757812 8.480469 4.800781 8.460938 Z M 4.800781 8.460938 "/>
<path style=" stroke:none;fill-rule:nonzero;fill:rgb(82.745099%,71.764708%,63.137257%);fill-opacity:1;" d="M 4.921875 22.558594 C 5.089844 22.710938 5.1875 22.8125 5.21875 23.039062 C 5.039062 22.980469 5.039062 22.980469 4.9375 22.796875 C 4.914062 22.738281 4.886719 22.679688 4.859375 22.621094 C 4.878906 22.601562 4.898438 22.582031 4.921875 22.558594 Z M 4.921875 22.558594 "/>
<path style=" stroke:none;fill-rule:nonzero;fill:rgb(85.09804%,74.117649%,65.490198%);fill-opacity:1;" d="M 3.960938 9.359375 C 4.007812 9.535156 4.019531 9.652344 4.019531 9.839844 C 3.941406 9.839844 3.863281 9.839844 3.78125 9.839844 C 3.890625 9.496094 3.890625 9.496094 3.960938 9.359375 Z M 3.960938 9.359375 "/>
<path style=" stroke:none;fill-rule:nonzero;fill:rgb(74.117649%,63.137257%,54.509807%);fill-opacity:1;" d="M 24.660156 23.039062 C 24.679688 23.078125 24.699219 23.121094 24.71875 23.160156 C 24.621094 23.28125 24.523438 23.402344 24.421875 23.519531 C 24.378906 23.519531 24.339844 23.519531 24.300781 23.519531 C 24.320312 23.460938 24.339844 23.402344 24.359375 23.339844 C 24.398438 23.339844 24.4375 23.339844 24.480469 23.339844 C 24.507812 23.28125 24.507812 23.28125 24.535156 23.222656 C 24.601562 23.101562 24.601562 23.101562 24.660156 23.039062 Z M 24.660156 23.039062 "/>
<path style=" stroke:none;fill-rule:nonzero;fill:rgb(86.274511%,76.862746%,67.843139%);fill-opacity:1;" d="M 12.601562 14.941406 C 12.757812 14.960938 12.917969 14.980469 13.078125 15 C 12.882812 15.113281 12.703125 15.148438 12.480469 15.179688 C 12.519531 15.101562 12.558594 15.023438 12.601562 14.941406 Z M 12.601562 14.941406 "/>
<path style=" stroke:none;fill-rule:nonzero;fill:rgb(87.058824%,76.47059%,67.843139%);fill-opacity:1;" d="M 3.898438 10.558594 C 3.960938 10.578125 4.019531 10.597656 4.078125 10.621094 C 4.003906 10.742188 3.921875 10.863281 3.839844 10.980469 C 3.800781 10.980469 3.761719 10.980469 3.71875 10.980469 C 3.832031 10.628906 3.832031 10.628906 3.898438 10.558594 Z M 3.898438 10.558594 "/>
<path style=" stroke:none;fill-rule:nonzero;fill:rgb(85.09804%,74.901962%,65.882355%);fill-opacity:1;" d="M 13.441406 2.820312 C 13.367188 2.910156 13.367188 2.910156 13.261719 3 C 13.097656 3.011719 13.097656 3.011719 12.960938 3 C 12.960938 2.941406 12.960938 2.882812 12.960938 2.820312 C 13.144531 2.761719 13.257812 2.761719 13.441406 2.820312 Z M 13.441406 2.820312 "/>
<path style=" stroke:none;fill-rule:nonzero;fill:rgb(87.450981%,77.254903%,67.843139%);fill-opacity:1;" d="M 18 19.921875 C 18.058594 19.941406 18.117188 19.960938 18.179688 19.980469 C 18.160156 20.058594 18.140625 20.136719 18.121094 20.21875 C 18.019531 20.199219 17.921875 20.179688 17.820312 20.160156 C 17.878906 20.082031 17.9375 20 18 19.921875 Z M 18 19.921875 "/>
<path style=" stroke:none;fill-rule:nonzero;fill:rgb(87.058824%,76.862746%,67.843139%);fill-opacity:1;" d="M 14.160156 2.699219 C 14.21875 2.699219 14.277344 2.699219 14.339844 2.699219 C 14.339844 2.738281 14.339844 2.777344 14.339844 2.820312 C 14.457031 2.820312 14.578125 2.820312 14.699219 2.820312 C 14.699219 2.839844 14.699219 2.859375 14.699219 2.878906 C 14.503906 2.878906 14.304688 2.878906 14.101562 2.878906 C 14.121094 2.820312 14.140625 2.761719 14.160156 2.699219 Z M 14.160156 2.699219 "/>
</g>
</svg>
